<svg width="1200" height="630" viewBox="0 0 1200 630" fill="none" xmlns="http://www.w3.org/2000/svg">
  <rect width="1200" height="630" rx="40" fill="#07111A"/>
  <rect x="24" y="24" width="1152" height="582" rx="32" fill="url(#paint0_linear)"/>
  <circle cx="188" cy="136" r="150" fill="url(#paint1_radial)" fill-opacity="0.8"/>
  <circle cx="1000" cy="128" r="140" fill="url(#paint2_radial)" fill-opacity="0.7"/>
  <circle cx="966" cy="506" r="194" fill="url(#paint3_radial)" fill-opacity="0.55"/>
  <rect x="80" y="92" width="1040" height="446" rx="36" fill="rgba(8, 17, 26, 0.62)"/>
  <rect x="80" y="92" width="1040" height="446" rx="36" stroke="rgba(255, 255, 255, 0.12)"/>
  <g opacity="0.14">
    <path d="M80 162H1120" stroke="white"/>
    <path d="M80 234H1120" stroke="white"/>
    <path d="M80 306H1120" stroke="white"/>
    <path d="M80 378H1120" stroke="white"/>
    <path d="M80 450H1120" stroke="white"/>
    <path d="M80 522H1120" stroke="white"/>
    <path d="M160 92V538" stroke="white"/>
    <path d="M280 92V538" stroke="white"/>
    <path d="M400 92V538" stroke="white"/>
    <path d="M520 92V538" stroke="white"/>
    <path d="M640 92V538" stroke="white"/>
    <path d="M760 92V538" stroke="white"/>
    <path d="M880 92V538" stroke="white"/>
    <path d="M1000 92V538" stroke="white"/>
  </g>
  <rect x="128" y="132" width="158" height="158" rx="34" fill="url(#paint4_linear)"/>
  <rect x="128" y="132" width="158" height="158" rx="34" stroke="rgba(255, 255, 255, 0.14)"/>
  <path d="M176 220L206 180L236 220" stroke="#04121A" stroke-width="18" stroke-linecap="round" stroke-linejoin="round"/>
  <path d="M206 180V248" stroke="#04121A" stroke-width="18" stroke-linecap="round"/>
  <path d="M354 166H476" stroke="#69D8FF" stroke-width="16" stroke-linecap="round"/>
  <path d="M354 210H720" stroke="white" stroke-width="24" stroke-linecap="round"/>
  <path d="M354 266H790" stroke="white" stroke-width="24" stroke-linecap="round"/>
  <path d="M354 322H724" stroke="rgba(239, 245, 251, 0.76)" stroke-width="14" stroke-linecap="round"/>
  <path d="M354 356H650" stroke="rgba(239, 245, 251, 0.76)" stroke-width="14" stroke-linecap="round"/>
  <rect x="354" y="418" width="218" height="68" rx="34" fill="url(#paint5_linear)"/>
  <path d="M406 452H516" stroke="#04121A" stroke-width="14" stroke-linecap="round"/>
  <rect x="610" y="418" width="198" height="68" rx="34" fill="rgba(255,255,255,0.06)"/>
  <rect x="610" y="418" width="198" height="68" rx="34" stroke="rgba(255,255,255,0.12)"/>
  <path d="M656 452H760" stroke="white" stroke-width="12" stroke-linecap="round"/>
  <path d="M896 170H1040V218H896V170Z" fill="rgba(105,216,255,0.1)"/>
  <rect x="884" y="158" width="180" height="86" rx="24" fill="rgba(255,255,255,0.04)"/>
  <rect x="884" y="158" width="180" height="86" rx="24" stroke="rgba(255,255,255,0.12)"/>
  <path d="M920 192H984" stroke="#F5C27B" stroke-width="12" stroke-linecap="round"/>
  <path d="M920 220H1026" stroke="white" stroke-width="10" stroke-linecap="round" opacity="0.85"/>
  <path d="M920 246H986" stroke="white" stroke-width="10" stroke-linecap="round" opacity="0.55"/>
  <defs>
    <linearGradient id="paint0_linear" x1="72" y1="54" x2="1117" y2="573" gradientUnits="userSpaceOnUse">
      <stop stop-color="#09141F"/>
      <stop offset="1" stop-color="#0C1A26"/>
    </linearGradient>
    <radialGradient id="paint1_radial" cx="0" cy="0" r="1" gradientUnits="userSpaceOnUse" gradientTransform="translate(188 136) rotate(90) scale(150)">
      <stop stop-color="#69D8FF"/>
      <stop offset="1" stop-color="#69D8FF" stop-opacity="0"/>
    </radialGradient>
    <radialGradient id="paint2_radial" cx="0" cy="0" r="1" gradientUnits="userSpaceOnUse" gradientTransform="translate(1000 128) rotate(90) scale(140)">
      <stop stop-color="#F5C27B"/>
      <stop offset="1" stop-color="#F5C27B" stop-opacity="0"/>
    </radialGradient>
    <radialGradient id="paint3_radial" cx="0" cy="0" r="1" gradientUnits="userSpaceOnUse" gradientTransform="translate(966 506) rotate(90) scale(194)">
      <stop stop-color="#4DD0E1"/>
      <stop offset="1" stop-color="#4DD0E1" stop-opacity="0"/>
    </radialGradient>
    <linearGradient id="paint4_linear" x1="128" y1="132" x2="286" y2="290" gradientUnits="userSpaceOnUse">
      <stop stop-color="#69D8FF"/>
      <stop offset="1" stop-color="#1CC3DA"/>
    </linearGradient>
    <linearGradient id="paint5_linear" x1="354" y1="418" x2="572" y2="486" gradientUnits="userSpaceOnUse">
      <stop stop-color="#69D8FF"/>
      <stop offset="1" stop-color="#1CC3DA"/>
    </linearGradient>
  </defs>
</svg>
