<svg width="1600" height="1200" viewBox="0 0 1600 1200" fill="none" xmlns="http://www.w3.org/2000/svg">
  <defs>
    <linearGradient id="bg" x1="176" y1="92" x2="1436" y2="1120" gradientUnits="userSpaceOnUse">
      <stop stop-color="#120F1E"/>
      <stop offset="0.48" stop-color="#171426"/>
      <stop offset="1" stop-color="#0B0A14"/>
    </linearGradient>
    <linearGradient id="blueprint" x1="206" y1="218" x2="1018" y2="880" gradientUnits="userSpaceOnUse">
      <stop stop-color="#1F1B32"/>
      <stop offset="1" stop-color="#110E1C"/>
    </linearGradient>
    <linearGradient id="accent" x1="260" y1="278" x2="1380" y2="950" gradientUnits="userSpaceOnUse">
      <stop stop-color="#38BDF8"/>
      <stop offset="1" stop-color="#FB7185"/>
    </linearGradient>
  </defs>
  <rect width="1600" height="1200" rx="72" fill="url(#bg)"/>
  <circle cx="254" cy="190" r="170" fill="#38BDF8" fill-opacity="0.1"/>
  <circle cx="1338" cy="292" r="184" fill="#FB7185" fill-opacity="0.12"/>

  <rect x="148" y="154" width="1304" height="892" rx="52" fill="#0B0914" stroke="rgba(255,255,255,0.08)"/>
  <rect x="210" y="220" width="840" height="760" rx="40" fill="url(#blueprint)" stroke="rgba(255,255,255,0.06)"/>

  <path d="M270 300H990M270 396H990M270 492H990M270 588H990M270 684H990M270 780H990M270 876H990" stroke="rgba(255,255,255,0.05)"/>
  <path d="M318 268V932M446 268V932M574 268V932M702 268V932M830 268V932M958 268V932" stroke="rgba(255,255,255,0.05)"/>

  <rect x="294" y="294" width="316" height="228" rx="28" fill="rgba(255,255,255,0.04)" stroke="rgba(255,255,255,0.08)"/>
  <rect x="330" y="330" width="156" height="18" rx="9" fill="rgba(255,255,255,0.76)"/>
  <rect x="330" y="366" width="108" height="12" rx="6" fill="rgba(255,255,255,0.22)"/>
  <rect x="330" y="420" width="244" height="62" rx="20" fill="rgba(56,189,248,0.1)"/>
  <path d="M364 462L416 414L462 448L528 388" stroke="#7DD3FC" stroke-width="14" stroke-linecap="round" stroke-linejoin="round"/>

  <rect x="650" y="326" width="316" height="164" rx="28" fill="rgba(255,255,255,0.04)" stroke="rgba(255,255,255,0.08)"/>
  <rect x="684" y="360" width="136" height="18" rx="9" fill="rgba(255,255,255,0.76)"/>
  <rect x="684" y="398" width="206" height="12" rx="6" fill="rgba(255,255,255,0.2)"/>
  <rect x="684" y="438" width="126" height="24" rx="12" fill="rgba(251,113,133,0.18)"/>

  <rect x="332" y="572" width="570" height="300" rx="34" fill="rgba(255,255,255,0.03)" stroke="rgba(255,255,255,0.08)"/>
  <rect x="370" y="612" width="186" height="18" rx="9" fill="rgba(255,255,255,0.76)"/>
  <rect x="370" y="648" width="290" height="12" rx="6" fill="rgba(255,255,255,0.2)"/>
  <path d="M416 742H824" stroke="rgba(255,255,255,0.08)" stroke-width="18" stroke-linecap="round"/>
  <path d="M416 788H740" stroke="rgba(255,255,255,0.08)" stroke-width="18" stroke-linecap="round"/>
  <path d="M416 834H636" stroke="rgba(255,255,255,0.08)" stroke-width="18" stroke-linecap="round"/>

  <rect x="1112" y="238" width="252" height="320" rx="34" fill="url(#accent)"/>
  <rect x="1144" y="272" width="188" height="14" rx="7" fill="rgba(255,255,255,0.86)"/>
  <rect x="1144" y="302" width="132" height="10" rx="5" fill="rgba(255,255,255,0.42)"/>
  <rect x="1144" y="360" width="188" height="164" rx="24" fill="rgba(15,23,42,0.3)"/>
  <rect x="1174" y="394" width="128" height="12" rx="6" fill="rgba(255,255,255,0.72)"/>
  <rect x="1174" y="424" width="98" height="10" rx="5" fill="rgba(255,255,255,0.32)"/>
  <rect x="1174" y="468" width="96" height="28" rx="14" fill="rgba(255,255,255,0.16)"/>

  <rect x="1068" y="622" width="334" height="296" rx="38" fill="#100D18" stroke="rgba(255,255,255,0.06)"/>
  <rect x="1104" y="662" width="164" height="18" rx="9" fill="rgba(255,255,255,0.78)"/>
  <rect x="1104" y="698" width="118" height="12" rx="6" fill="rgba(255,255,255,0.22)"/>
  <path d="M1150 836C1178 760 1248 716 1314 716C1380 716 1450 760 1478 836" stroke="#FB7185" stroke-width="16" stroke-linecap="round"/>
  <path d="M1244 786C1268 786 1288 766 1288 742C1288 718 1268 698 1244 698C1220 698 1200 718 1200 742C1200 766 1220 786 1244 786Z" fill="#FBCFE8"/>
  <path d="M1348 816C1370 816 1388 798 1388 776C1388 754 1370 736 1348 736C1326 736 1308 754 1308 776C1308 798 1326 816 1348 816Z" fill="#BAE6FD"/>

  <path d="M978 436L1110 392" stroke="url(#accent)" stroke-width="10" stroke-linecap="round"/>
  <path d="M902 758L1084 736" stroke="url(#accent)" stroke-width="10" stroke-linecap="round"/>
  <circle cx="976" cy="436" r="12" fill="#38BDF8"/>
  <circle cx="1110" cy="392" r="12" fill="#FB7185"/>
  <circle cx="902" cy="758" r="12" fill="#38BDF8"/>
  <circle cx="1084" cy="736" r="12" fill="#FB7185"/>
</svg>
